<svg width="24" height="23" viewBox="0 0 24 23" fill="none" xmlns="http://www.w3.org/2000/svg">
<path d="M3.25 22.5C2.5625 22.5 1.97375 22.255 1.48375 21.765C0.993752 21.275 0.749169 20.6867 0.750002 20V2.5C0.750002 1.8125 0.995002 1.22375 1.485 0.733752C1.975 0.243752 2.56334 -0.000831211 3.25 2.12224e-06H10.75V22.5H3.25ZM13.25 22.5V11.25H23.25V20C23.25 20.6875 23.005 21.2763 22.515 21.7663C22.025 22.2563 21.4367 22.5008 20.75 22.5H13.25ZM13.25 8.75V2.12224e-06H20.75C21.4375 2.12224e-06 22.0263 0.245002 22.5163 0.735002C23.0063 1.225 23.2508 1.81334 23.25 2.5V8.75H13.25Z" fill="white"/>
</svg>
