<svg width="26" height="24" viewBox="0 0 26 24" fill="none" xmlns="http://www.w3.org/2000/svg">
<path d="M5.5 13.25C2.7375 13.25 0.5 15.4875 0.5 18.25C0.5 21.0125 2.7375 23.25 5.5 23.25C8.2625 23.25 10.5 21.0125 10.5 18.25C10.5 15.4875 8.2625 13.25 5.5 13.25ZM5.5 20.75C4.125 20.75 3 19.625 3 18.25C3 16.875 4.125 15.75 5.5 15.75C6.875 15.75 8 16.875 8 18.25C8 19.625 6.875 20.75 5.5 20.75ZM5.5 0.75C2.7375 0.75 0.5 2.9875 0.5 5.75C0.5 8.5125 2.7375 10.75 5.5 10.75C8.2625 10.75 10.5 8.5125 10.5 5.75C10.5 2.9875 8.2625 0.75 5.5 0.75ZM13 3.25H25.5V5.75H13V3.25ZM13 20.75V18.25H25.5V20.75H13ZM13 10.75H25.5V13.25H13V10.75Z" fill="white"/>
</svg>
